<svg width="48" height="48" viewBox="0 0 48 48" fill="none" xmlns="http://www.w3.org/2000/svg">
<path d="M17.625 13.875C18.2812 13.4062 19.2188 13.4062 19.875 13.875L33.375 22.125C34.0312 22.5 34.5 23.25 34.5 24C34.5 24.8438 34.0312 25.5938 33.375 25.9688L19.875 34.2188C19.2188 34.5938 18.2812 34.6875 17.625 34.2188C16.875 33.8438 16.5 33.0938 16.5 32.25V15.75C16.5 15 16.875 14.25 17.625 13.875ZM48 24C48 37.3125 37.2188 48 24 48C10.6875 48 0 37.3125 0 24C0 10.7812 10.6875 0 24 0C37.2188 0 48 10.7812 48 24ZM24 4.5C13.2188 4.5 4.5 13.3125 4.5 24C4.5 34.7812 13.2188 43.5 24 43.5C34.6875 43.5 43.5 34.7812 43.5 24C43.5 13.3125 34.6875 4.5 24 4.5Z" fill="#121212"/>
<path d="M24 48C37.2188 48 48 37.3125 48 24C48 10.7812 37.2188 0 24 0C10.6875 0 0 10.7812 0 24C0 37.3125 10.6875 48 24 48ZM21 18V30C21 31.6875 19.5938 33 18 33C16.3125 33 15 31.6875 15 30V18C15 16.4062 16.3125 15 18 15C19.5938 15 21 16.4062 21 18ZM33 18V30C33 31.6875 31.5938 33 30 33C28.3125 33 27 31.6875 27 30V18C27 16.4062 28.3125 15 30 15C31.5938 15 33 16.4062 33 18Z" fill="white"/>
</svg>
