<svg width="14" height="15" viewBox="0 0 14 15" fill="none" xmlns="http://www.w3.org/2000/svg">
<path d="M14 7.75C14 3.89453 10.8555 0.75 7 0.75C3.11719 0.75 0 3.89453 0 7.75C0 11.6328 3.11719 14.75 7 14.75C10.8555 14.75 14 11.6328 14 7.75ZM7.41016 4.44141C7.65625 4.19531 8.06641 4.19531 8.3125 4.44141C8.58594 4.71484 8.58594 5.125 8.3125 5.37109L5.93359 7.75L8.3125 10.1289C8.58594 10.4023 8.58594 10.8125 8.3125 11.0586C8.06641 11.332 7.65625 11.332 7.41016 11.0586L4.56641 8.21484C4.29297 7.96875 4.29297 7.55859 4.56641 7.3125L7.41016 4.44141Z" fill="white"/>
</svg>
