<svg width="14" height="15" viewBox="0 0 14 15" fill="none" xmlns="http://www.w3.org/2000/svg">
<path d="M0 7.75C0 11.6328 3.11719 14.75 7 14.75C10.8555 14.75 14 11.6328 14 7.75C14 3.89453 10.8555 0.75 7 0.75C3.11719 0.75 0 3.89453 0 7.75ZM6.58984 11.0586C6.31641 11.332 5.90625 11.332 5.66016 11.0586C5.38672 10.8125 5.38672 10.4023 5.66016 10.1562L8.03906 7.77734L5.66016 5.39844C5.38672 5.125 5.38672 4.71484 5.66016 4.46875C5.90625 4.19531 6.31641 4.19531 6.58984 4.46875L9.43359 7.28516C9.67969 7.55859 9.67969 7.96875 9.43359 8.21484L6.58984 11.0586Z" fill="white"/>
</svg>
